<?xml version="1.0" encoding="UTF-8" standalone="no"?>
<svg xmlns="http://www.w3.org/2000/svg" xmlns:xlink="http://www.w3.org/1999/xlink" width="297.000mm" height="210.000mm" viewBox="0.000000 0.000000 297.000000 210.000000" stroke-linejoin="round" stroke-linecap="round" fill="none" fill-rule="evenodd"><desc>Composer Export</desc><script type="text/ecmascript"><![CDATA[
if(typeof(top) != "undefined")
{
	top.ShowPaper = ShowPaper;
}
function ShowHotSpot(evt,hotspotid)
{
	var svgDocument = evt.target.ownerDocument;
	var strId = "hotspot."+hotspotid;
	var hotspot = svgDocument.getElementById(strId);
	if(hotspot)
		hotspot.setAttribute("opacity",".5");
}
function HideHotSpot(evt,hotspotid)
{
	var svgDocument = evt.target.ownerDocument;
	var strId = "hotspot."+hotspotid;
	var hotspot = svgDocument.getElementById(strId);
	if(hotspot)
		hotspot.setAttribute("opacity","0");

	var toolTip = svgDocument.getElementById('ToolTip');
	if(toolTip)
		toolTip.setAttribute("visibility","hidden");
}
function ShowToolTip(evt,hotspotid,strTooltip)
{
	if(strTooltip=="")
	return;

	// change text
	var svgDocument = evt.target.ownerDocument;
	var tiptext = svgDocument.getElementById('ToolTipText');
	if( !tiptext )
	return;
	tiptext.firstChild.nodeValue = " " + strTooltip + "  " ;

	// show tooltip before, else some refresh issue

	var toolTip = svgDocument.getElementById('ToolTip');
	if(!toolTip)
	return;

	toolTip.setAttribute("visibility","visible");
	toolTip.setAttribute("opacity",".95");

	// move tooltip
	// get viewbox

	var root = svgDocument.documentElement;
	var vbox = (root.getAttribute("viewBox")).split(' ');
	var x0 = parseFloat(vbox[0]);
	var y0 = parseFloat(vbox[1]);
	var vboxW = parseFloat(vbox[2]);
	var vboxH = parseFloat(vbox[3]);

	// get default width of svg

	var strW = root.getAttribute("width");
	var svgW = parseFloat(strW);
	if(strW.indexOf('mm') != -1)
	svgW *= 3.779;

	var strH = root.getAttribute("height");
	var svgH = parseFloat(strH);
	if(strH.indexOf('mm') != -1)
	svgH *= 3.779;  	// 96 dpi  -> 96/25.4 = 3.779

	// update the viewbox / width / height if svg is embedded in html with zoom fit all
	var realx0 = x0;
	var realy0 = y0;
	var realvboxW = vboxW;
	var realvboxH = vboxH;
	var realsvgW = svgW;
	var realsvgH = svgH;

	if ((typeof(top) == "undefined") || (typeof(top.svgctl1) != "undefined")) // embedded in html
	{
		// get window size in pxl

		svgW = window.innerWidth;
		svgH = window.innerHeight;

		// calculate real viewbox

		realsvgW = svgW;
		realsvgH = svgH;
		if((svgW / svgH) > (vboxW / vboxH))
		{
			realvboxW = (vboxH * svgW) / svgH;
			realvboxH = vboxH;
			realx0 = x0 - (realvboxW - vboxW)/2 ;
		}
		else
		{
			realvboxH = (vboxW * svgH) / svgW;
			realvboxW = vboxW;
			realy0 = y0 - (realvboxH - vboxH)/2 ;
		}
	}

	// get user zoom/pan

	var newScale = root.currentScale;
	var translation = root.currentTranslate;

	// transform pxl to user unit

	var xPos = (((evt.clientX+10- translation.x)/newScale) * realvboxW)/realsvgW  + realx0 ;
	var yPos = (((evt.clientY+5- translation.y)/newScale) * realvboxH)/ realsvgH  + realy0 ;
	var scaleForWidth = ( (1 / newScale) * realvboxH) / realsvgH;

	// move tooltip

	toolTip.setAttribute("transform", "translate(" + xPos + "," + yPos + ")" );

	// resize tooltip

	var fontsize = 12;
	tiptext.setAttribute("font-size",fontsize*scaleForWidth);
	tiptext.setAttribute("y", fontsize*scaleForWidth);
	var tipBG = svgDocument.getElementById('ToolTipBG');
	var outline = tiptext.getBBox();
	if(tipBG)
	{
		tipBG.setAttribute("stroke-width", 1*scaleForWidth);
		tipBG.setAttribute("width", Number(outline.width) );
		tipBG.setAttribute("height", Number(outline.height) + fontsize*.5*scaleForWidth );
	}
	var ToolTipShadow = svgDocument.getElementById('ToolTipShadow');
	if(ToolTipShadow)
	{
		ToolTipShadow.setAttribute("width", Number(outline.width) );
		ToolTipShadow.setAttribute("height", Number(outline.height) + fontsize*.5*scaleForWidth );
		ToolTipShadow.setAttribute("x", 3*scaleForWidth);
		ToolTipShadow.setAttribute("y", 3*scaleForWidth);
	}
}
function ShowPaper()
{
  var svgDocument = getDocument();
  var paper = svgDocument.getElementById("paperID");
  if(paper)
  {
    paper.setAttribute("transform","scale(1)");
    paper.setAttribute("opacity","1");
    paper.setAttribute("visibility","visible");
  }
  var svg = svgDocument.getRootElement();
  if(svg)
  {
    svg.setAttribute("width","307.000mm");
    svg.setAttribute("height","220.000mm");
    svg.setAttribute("viewBox","-5.000000 -5.000000 307.000000 220.000000");
  }
}
]]></script><defs/><g><path style="fill:#000000;fill-opacity:0.098;fill-rule:evenodd" d="M151.19,30.48L151.19,42.64L146.66,42.55L145.13,42.32L142.89,41.54L140.65,40.26L139.39,39.26L138.61,37.79L138.61,35.33L139.39,33.85L141.30,32.25L143.32,31.25L146.33,30.49L148.91,30.23zM215.55,32.71L217.29,36.01L217.28,36.85L216.01,39.87L214.24,42.87L211.66,46.32L208.47,50.17L206.11,52.58L203.87,54.61L199.45,58.99L194.82,62.65L192.64,64.50L191.88,64.69L171.05,52.58L170.01,51.11L169.52,49.34L168.94,50.34L166.43,54.11L164.40,56.38L164.91,56.40L166.68,55.87L168.52,55.87L169.55,56.09L169.79,56.35L170.26,58.14L171.52,61.48L172.04,59.22L172.21,57.85L172.52,57.83L196.16,71.45L202.94,76.04L204.97,73.28L205.46,73.17L206.69,74.23L208.39,74.21L216.93,73.21L221.56,73.03L221.29,72.20L220.50,70.44L220.45,69.92L221.80,70.18L223.81,73.95L224.30,76.72L224.57,76.96L226.57,77.73L229.08,80.24L234.52,80.24L240.56,78.99L243.47,78.24L243.66,78.43L243.46,78.85L234.87,83.85L234.09,85.33L234.10,87.03L234.36,88.84L225.24,93.80L225.26,94.05L227.34,96.81L229.10,98.31L231.12,99.81L234.86,101.85L239.38,103.61L239.62,106.63L240.37,106.89L246.41,108.13L250.68,108.64L259.74,109.23L259.64,106.36L260.49,106.36L261.25,106.87L261.74,108.89L261.76,110.49L259.92,112.17L259.47,113.48L259.49,115.43L255.46,116.25L241.56,118.18L233.02,118.94L222.04,118.94L216.76,118.43L212.41,117.91L213.02,118.66L218.29,123.19L224.79,127.81L221.77,129.59L221.70,130.05L225.59,132.48L234.35,137.03L247.42,142.58L247.95,142.45L250.07,139.79L252.70,141.05L255.21,142.81L259.50,146.59L260.13,146.59L260.99,144.15L262.24,137.76L262.24,140.38L261.99,142.39L260.99,147.16L259.48,151.68L257.39,156.12L254.45,160.98L252.70,163.49L248.67,168.27L246.19,170.80L240.54,175.71L235.00,179.72L228.97,183.49L221.71,187.29L217.94,189.04L211.41,191.81L201.42,195.14L191.56,197.85L179.57,200.18L168.02,201.69L157.89,202.36L140.88,202.36L135.85,202.11L125.55,201.10L115.50,199.60L104.94,197.34L95.13,194.59L94.47,194.24L95.41,194.31L100.41,195.84L111.23,198.34L120.02,199.85L128.82,200.95L129.07,197.06L131.32,198.10L132.84,198.34L141.38,198.84L156.88,198.84L165.42,198.34L167.70,198.10L170.06,196.94L171.20,195.58L171.79,193.89L171.80,193.06L171.06,191.52L168.77,189.55L161.50,184.25L157.19,180.98L157.14,180.74L157.61,180.49L162.01,179.99L159.49,177.46L157.72,174.72L156.95,172.47L155.20,166.68L151.69,158.64L147.94,151.07L142.39,140.80L136.10,130.50L135.33,128.50L135.10,127.23L135.09,123.02L143.40,104.95L144.16,102.14L144.39,102.11L148.19,106.86L149.19,107.72L149.19,102.09L140.91,91.52L139.37,88.79L138.61,86.28L138.60,82.32L149.09,59.63L150.92,57.95L151.68,57.35L150.36,57.64L145.32,58.99L145.31,49.07L149.85,49.08L153.86,48.83L158.45,47.89L162.41,46.57L165.79,44.67L167.79,43.16L169.41,41.27L170.72,38.80L171.03,37.25L171.27,43.14L172.45,41.79L174.21,41.04L211.66,35.26L215.27,35.02L214.22,32.74L214.16,32.24L214.75,32.21zM128.57,59.89L130.33,70.19L131.33,80.74L131.33,99.42L130.33,122.79L130.33,147.08L131.58,174.22L131.58,182.09L131.33,185.86L130.58,190.38L129.58,193.64L129.09,193.31L124.58,187.25L121.03,182.26L116.27,175.21L113.49,168.94L110.21,160.66L106.19,150.36L103.69,138.04L102.18,128.74L101.68,124.21L101.68,119.52L102.35,103.11L103.37,96.33L105.19,88.86L106.63,84.02L108.89,77.73L112.49,68.77L115.67,61.90L120.21,53.63L120.67,53.33L125.47,52.60L126.80,52.61zM98.50,132.60L99.17,135.27L100.45,142.64L94.88,153.96L94.90,150.68L97.08,137.78L98.40,132.50zM89.20,192.48L88.34,192.34L87.95,191.96L88.64,192.04zM172.28,87.03L174.57,90.27L177.59,93.28L181.36,96.30L201.93,109.40L207.98,113.87L206.11,117.19L205.73,117.19L202.18,114.42L194.15,109.14L178.34,99.06L176.07,97.30L176.04,98.60L178.06,103.12L179.57,106.12L180.60,108.61L182.09,110.90L185.38,115.15L187.14,117.16L188.39,118.67L193.42,123.19L196.43,125.70L200.96,128.96L208.22,133.52L217.77,138.28L224.30,141.05L234.09,144.33L244.65,147.09L256.25,149.56L256.50,149.81L256.46,152.19L255.96,154.70L255.13,156.63L253.63,158.90L250.61,162.66L246.67,167.01L242.79,170.42L238.78,173.70L237.05,174.73L234.84,174.73L226.27,170.95L225.99,170.67L226.54,170.68L228.57,171.47L229.36,171.45L216.79,163.63L209.50,158.62L204.48,154.59L199.95,150.83L195.68,147.06L192.66,144.04L191.41,142.53L188.14,138.77L183.09,132.01L178.57,124.46L175.28,118.42L175.29,117.92L177.08,119.17L181.59,121.70L186.37,123.74L186.87,123.72L183.35,118.18L179.58,111.40L174.05,102.10L170.52,95.57L168.50,91.32L165.98,89.76L165.93,89.54L166.76,88.87L170.28,84.60L170.67,83.99zM150.95,110.13L155.98,115.65L159.50,119.42L160.75,120.93L176.82,137.02L178.82,137.28L183.11,137.52L183.60,137.78L189.90,143.79L195.93,149.32L212.01,163.39L215.50,165.67L211.47,167.54L211.47,167.92L213.50,168.94L222.55,173.21L226.56,175.73L226.82,176.74L226.58,178.84L225.55,180.82L224.08,182.62L218.52,185.36L209.40,189.05L203.37,191.06L196.14,193.13L186.78,195.33L183.83,195.34L183.10,194.82L180.83,189.54L175.33,179.47L168.27,166.18L163.99,157.39L159.21,145.58L156.19,136.54L153.68,127.24L151.43,116.43L150.33,109.38L150.44,109.35z"/><g id="Actor_.0"><g style="stroke:#000000;stroke-width:0.176"><path d="M36.81,125.84L37.05,128.56L37.75,134.38L38.77,141.12L38.96,142.83L39.02,144.38L38.95,145.60L38.76,146.32L38.60,146.50L38.48,146.52L38.33,146.42L38.15,146.13L37.99,145.75L36.97,142.08L36.28,138.15L36.00,134.22"/><path d="M36.01,134.99L36.01,134.92"/><path d="M116.19,193.54L116.37,193.16L116.01,193.84L115.50,194.39L114.96,194.77L114.23,195.10L113.60,195.25L112.72,195.32L111.70,195.21L105.90,193.93L99.68,192.31L93.63,190.48L87.79,188.44L82.17,186.21L76.79,183.78L75.17,182.99L74.44,182.54L73.87,182.09L73.22,181.42L72.43,180.33L70.02,176.32L64.35,166.19L59.12,155.83L58.52,154.35L58.31,153.64L58.01,152.28L57.89,150.75L57.98,149.57L58.22,148.48L58.49,147.79L58.97,146.96L59.49,146.36L60.18,145.82L61.70,144.80L63.29,143.53L64.79,142.11L65.80,141.02L67.21,139.30L68.51,137.45L69.63,135.63L70.83,133.37L72.25,130.17L73.18,127.65L73.98,125.06L74.67,122.35L75.23,119.58L75.70,116.56L76.02,113.39L76.19,110.26L76.21,107.08L76.08,103.88L76.08,102.75L76.25,101.56L76.73,100.06L77.29,99.02L78.00,98.04L79.17,96.93L80.17,96.27L81.59,95.64L82.80,95.33L86.44,94.69L86.30,94.12L81.16,95.01L80.35,95.20L79.22,95.61L78.15,96.19L76.98,97.10L75.98,98.24L75.36,99.26L74.79,100.66L74.53,101.83L74.45,103.04L74.37,106.63L74.22,108.89L73.87,112.13L73.36,115.34L72.71,118.41L71.92,121.42L70.97,124.35L70.04,126.81L68.92,129.33L67.68,131.73L66.33,133.97L64.86,136.09L63.80,137.43L62.27,139.11L60.67,140.63L58.98,141.97L57.20,143.15L56.53,143.64L56.01,144.21L55.51,144.98L55.10,146.00L54.85,147.16L54.77,148.76L54.97,150.47L55.32,151.84L55.83,153.20L59.49,161.15L63.42,168.98L63.83,169.86L64.08,170.57L64.31,171.46L64.40,172.14L64.41,172.96L64.34,173.52L64.13,174.15L63.90,174.53L63.52,174.90L63.15,175.08L62.62,175.16L62.17,175.10L61.57,174.87L61.09,174.57L57.41,171.79L53.56,168.51L50.07,165.10L46.94,161.57L44.18,157.94L43.59,157.00L43.20,156.17L42.85,155.26L42.44,153.90L41.16,148.75L39.90,143.01L38.81,137.24L37.90,131.43L37.14,125.35L37.09,123.83L37.14,122.95L37.37,121.52L37.85,119.98L38.38,118.87L39.04,117.91L39.54,117.37L40.32,116.73L41.08,116.31L41.95,116.03L44.23,115.40L46.26,114.65L47.24,114.22L49.28,113.19L51.26,112.00L53.18,110.65L55.04,109.16L56.90,107.46L58.78,105.53L60.56,103.45L62.23,101.25L64.08,98.51L65.69,95.79L67.16,92.96L68.49,90.04L69.68,87.05L70.76,83.91L71.44,81.61L70.61,83.74L69.20,86.98L67.65,90.09L65.96,93.07L64.14,95.92L62.18,98.60L60.34,100.85L58.35,103.01L56.28,104.98L54.13,106.78L51.90,108.39L50.30,109.39L48.18,110.55L46.02,111.51L43.85,112.29L41.04,113.04L40.36,113.34L39.44,113.99"/><path d="M47.13,86.48L48.12,85.46L49.04,84.76L49.71,84.38L50.62,84.02L51.46,83.86L52.32,83.85L54.17,83.95L56.21,83.89L58.28,83.66L59.75,83.40L61.91,82.86L64.05,82.16L66.17,81.29L68.26,80.26L69.00,79.85L71.20,78.51L72.45,77.63L71.70,80.71L71.44,81.61L71.54,81.25"/><path d="M49.25,83.96L48.65,84.74"/><path d="M48.96,84.36L48.98,84.31"/><path d="M70.27,77.93L72.67,76.65L72.45,77.63"/><path d="M72.67,76.65L73.58,72.87"/><path d="M86.30,94.12L85.16,89.56L83.88,83.74L82.78,77.87L81.85,71.96L81.11,66.20L81.06,64.96L81.18,63.74L81.59,62.21L82.09,61.13L82.31,60.75L83.01,59.80L83.84,58.98L85.11,58.10L86.43,57.53L87.66,57.23L124.49,51.52L125.95,51.16L127.04,50.72L127.37,50.51L127.63,50.25L127.70,50.04L127.65,49.82L128.05,50.28L128.98,50.95L129.90,51.40L131.00,51.81L132.73,52.29L131.48,52.11L129.46,52.06L127.27,52.21L126.19,52.36L89.21,58.08L88.12,58.34L86.95,58.81L85.78,59.54L84.91,60.31L83.96,61.49L83.30,62.77L82.92,63.91L82.70,65.33L82.70,66.56L83.72,73.15L84.84,79.06L86.12,84.92L87.58,90.72L89.21,96.50L90.99,102.17L92.92,107.80L95.02,113.37L99.09,123.26L100.25,126.38L101.30,129.50L102.23,132.61L103.06,135.70L103.79,138.77L104.41,141.82L104.94,145.00L105.28,147.65L105.52,150.24L105.66,152.75L105.69,155.06L105.62,157.19L105.45,159.24L105.17,161.18L104.78,163.02L104.55,163.85L104.00,165.46L103.26,167.10L103.02,167.76L102.91,168.46L102.94,169.35L103.05,170.02L103.36,171.10L103.82,172.23L104.61,173.66L105.45,174.88L106.02,175.60L107.24,176.94L111.46,181.12L115.74,185.20L120.07,189.16L124.45,193.02L128.43,196.42L129.62,197.24L130.61,197.70L131.72,198.04L133.27,198.25L140.09,198.69L146.95,198.89L153.81,198.84L160.65,198.56L166.70,198.11L167.46,198.00L168.39,197.72L169.09,197.39L169.88,196.88L170.44,196.39L171.02,195.70L171.37,195.11L171.67,194.32L171.78,193.68L171.76,192.90L171.62,192.29L171.28,191.59L170.90,191.09L170.29,190.55L164.08,186.02L157.97,181.40L156.94,180.56L155.61,179.33L154.73,178.41L153.92,177.44L152.96,176.13L152.31,175.01L151.99,174.36L151.74,173.69L151.23,171.38L150.76,169.62L150.18,167.77L149.49,165.80L147.99,162.00L145.89,157.21L143.58,152.33L140.77,146.72L137.75,141.07L135.04,136.28L132.66,132.24L132.03,130.87L131.64,129.73L131.36,128.60L131.16,127.19L131.15,125.78L131.24,124.93L131.46,124.07L131.67,123.54L139.34,107.03L139.80,105.89L140.20,104.64L140.55,103.26L140.94,101.11L141.05,99.92L140.94,97.59"/><path d="M116.37,193.16L116.56,192.60L116.62,191.98L116.55,191.18L116.37,190.53L115.99,189.75L115.58,189.15L114.95,188.46L110.69,184.37L106.49,180.19L102.13,175.68L101.13,174.55L100.24,173.36L99.42,172.05L98.84,170.92L98.29,169.46L98.06,168.41L97.97,167.48L98.04,166.68L98.18,166.10L99.12,164.11L99.74,162.40L100.25,160.55L100.63,158.56L100.84,156.94L101.04,154.55L101.11,152.00L101.03,148.93L100.89,146.59L100.61,143.81L100.18,140.62L99.62,137.36L98.94,134.04L98.14,130.68L97.18,127.15L96.21,123.98L95.01,120.51L91.98,112.51L90.02,106.83L88.23,101.11L86.44,94.69"/><path d="M95.40,21.10L96.64,20.87L97.61,20.89L98.78,21.16L99.67,21.57L126.69,37.18L127.31,37.57L127.31,47.67L127.23,50.60"/><path d="M96.99,20.67L98.55,20.30"/><path d="M127.31,37.57L127.31,36.36L127.73,38.82L128.98,41.20L131.00,43.38L133.73,45.30L137.05,46.87L140.83,48.04L144.94,48.76L149.21,49.00L153.49,48.76L157.59,48.04L161.38,46.87L164.70,45.30L167.42,43.38L169.44,41.19L170.69,38.82L171.11,36.36"/><path d="M127.31,36.36L127.43,35.68"/><path d="M132.73,52.29L132.86,52.32"/><path d="M134.84,125.13L134.95,126.54L135.17,127.66L135.50,128.79L136.08,130.26L136.81,131.66L138.87,134.86L142.04,140.11L144.70,144.81L147.80,150.59L150.26,155.47L151.78,158.64L153.68,162.85L155.14,166.48L155.73,168.08L156.29,169.81L157.29,173.62L157.56,174.26L157.99,175.10L158.40,175.75L159.07,176.70L159.84,177.65L160.91,178.78L162.42,180.17L163.55,181.07L171.68,186.99L179.69,192.56L182.87,194.71L183.27,194.94L183.89,195.19L184.73,195.36L185.45,195.38L186.37,195.28L188.38,194.86L194.71,193.39L200.88,191.70L206.86,189.79L212.62,187.68L218.16,185.38L222.97,183.12L223.78,182.63L224.47,182.04L224.98,181.49L225.56,180.71L225.95,180.05L226.35,179.19L226.58,178.49L226.74,177.74L226.81,176.97L226.76,176.22L226.62,175.68L226.35,175.14L226.01,174.75L225.53,174.44L221.39,172.56L213.87,169.02L211.66,167.81L209.68,166.57L207.61,165.10L206.35,164.07L202.93,160.98L196.12,154.95L189.76,149.18L182.87,142.67L165.95,126.00L162.24,122.22L158.55,118.32L154.88,114.32L151.26,110.23L147.68,106.03L144.17,101.71L143.69,103.69L143.34,104.80L142.86,105.99L135.38,122.08L135.09,122.87L134.91,123.77L134.84,125.13"/><path d="M144.17,101.71L140.68,97.26L137.36,92.85L136.68,91.85L136.08,90.80L135.41,89.35L135.08,88.43L134.89,87.83L134.64,86.73L134.47,85.35L134.49,84.38L134.61,83.50L134.94,82.51L144.62,61.63L144.76,61.25L144.81,60.85L144.72,60.41L144.53,60.10L144.14,59.80L143.72,59.62L143.09,59.48L142.49,59.45L141.68,59.51L143.52,59.23L147.07,58.47L149.21,57.87L151.36,57.16L153.40,56.40L151.97,57.11L151.08,57.67L150.27,58.29L149.62,58.92L149.08,59.57L148.71,60.19L138.82,81.51L138.56,82.25L138.37,83.33L138.35,84.30L138.49,85.64L138.73,86.73L139.08,87.84L139.66,89.22L140.21,90.27L141.32,91.96L144.80,96.45L148.32,100.81L151.67,104.82L155.47,109.18L159.10,113.18L162.74,117.08L166.38,120.84L170.03,124.50L183.57,137.61L189.54,143.31L195.96,149.22L199.86,152.68L211.15,162.51L212.60,163.64L214.19,164.73L216.46,166.11L219.13,167.51L226.27,170.77L232.72,173.61L218.67,164.73L213.13,161.04"/><path d="M139.05,38.46L139.38,39.06L141.01,40.49L143.24,41.61L145.92,42.35L148.84,42.64L151.79,42.46L154.55,41.84L156.91,40.80L158.70,39.44L159.79,37.84L160.09,36.14L159.59,34.46L158.32,32.91L156.37,31.62L153.89,30.68L151.06,30.16L148.10,30.10L145.22,30.51L142.63,31.35L140.54,32.56L139.08,34.05L138.38,35.71L138.48,37.42L139.05,38.46"/><path d="M140.98,98.40L140.85,97.49"/><path d="M159.94,6.74L160.07,6.97L160.05,7.30L159.87,7.90L159.60,8.52L152.46,23.90L149.21,23.71L144.94,23.95L141.24,24.60"/><path d="M152.46,23.90L153.48,23.96L156.73,24.52"/><path d="M153.49,56.35L153.65,56.29L153.40,56.40L153.49,56.35"/><path d="M261.94,109.89L261.81,109.74L261.06,109.45L259.60,109.17L258.06,109.01L253.93,108.78L250.22,108.48L246.52,108.00L244.29,107.62L241.11,106.90L240.05,106.63L238.09,106.04L236.24,105.38L234.28,104.57L232.46,103.70L230.78,102.74L229.23,101.73L227.77,100.62L226.60,99.60L225.47,98.45L223.18,95.77L219.52,91.78L215.46,87.66L210.59,82.93L205.46,78.05L204.11,76.87L201.79,75.08L198.59,72.83L196.48,71.51L170.02,56.23L169.49,55.97L168.85,55.77L167.98,55.65L167.24,55.66L166.31,55.79L165.56,56.00L164.67,56.37L164.00,56.76L163.26,57.34L164.68,55.98L166.14,54.36L167.42,52.69L168.53,50.96L169.44,49.20L170.00,47.88L169.82,48.47L169.70,49.36L169.76,50.19L170.02,51.00L170.43,51.71L171.02,52.35L171.73,52.85L192.17,64.65"/><path d="M168.57,113.38L165.75,107.33"/><path d="M166.15,89.66L170.18,92.28L172.11,93.68L173.28,94.62L176.10,97.19L177.41,98.24L178.70,99.20L179.99,100.06L199.72,112.56L202.08,114.18L204.34,115.90L206.36,117.54L211.16,121.93L213.10,123.59L215.13,125.23L217.26,126.85L219.49,128.44L221.81,129.99L223.89,131.30L226.03,132.57L228.51,133.95L230.87,135.19L233.24,136.36L237.12,138.14L239.31,139.08L244.42,141.12L246.96,142.21L231.81,136.88"/><path d="M169.46,114.76L166.59,109.03"/><path d="M169.90,115.34L170.17,115.82L167.67,111.18"/><path d="M169.32,114.25L171.18,117.46"/><path d="M168.97,76.34L169.24,78.07L169.71,80.30L170.31,82.42L171.04,84.42L171.62,85.71L172.44,87.22L173.37,88.56L174.61,90.08L175.84,91.43L177.11,92.69L178.40,93.87L180.63,95.65L181.93,96.56L201.79,109.16L203.91,110.61L206.16,112.31L209.00,114.65L213.51,118.98L215.26,120.53L217.12,122.09L219.12,123.66L222.49,126.09L225.09,127.81L227.22,129.12L229.42,130.39L232.26,131.91L236.52,133.99L238.96,135.09L242.21,136.45L246.99,138.30L248.71,139.01L251.16,140.12L252.80,140.96L253.64,141.48L256.54,143.72L258.88,145.84L259.74,146.74L259.89,146.74L260.07,146.57L260.41,145.83L260.79,144.62L261.74,140.72L262.29,136.79L262.42,132.85"/><path d="M170.32,116.12L170.17,115.82"/><path d="M180.78,132.28L172.03,118.81L170.81,116.80"/><path d="M171.25,52.52L171.11,47.38L171.11,43.17L171.38,42.70L171.93,42.07L172.47,41.65L173.25,41.22L173.94,40.97L174.60,40.83L210.76,35.24L212.00,35.08L213.32,35.00L214.30,35.01L215.41,35.11L216.34,35.32L216.84,35.54L217.25,35.90"/><path d="M171.11,43.17L171.11,37.76"/><path d="M173.31,120.78L175.55,124.04L182.70,133.99L182.58,133.83"/><path d="M175.15,123.47L182.01,133.52"/><path d="M177.33,126.50L181.22,131.66L185.64,137.14"/><path d="M181.22,131.66L184.45,135.94"/><path d="M182.70,133.99L182.77,134.09L182.70,133.99"/><path d="M182.77,134.09L183.24,134.74"/><path d="M182.18,132.83L186.83,138.33"/><path d="M188.00,139.50L183.98,134.95"/><path d="M184.95,136.30L185.61,137.10"/><path d="M186.71,138.19L186.03,137.41"/><path d="M186.84,138.19L189.16,140.66"/><path d="M202.84,154.15L190.30,141.81L188.58,140.03"/><path d="M192.56,144.03L195.61,146.89L195.65,146.89L207.21,157.08"/><path d="M192.01,64.56L195.82,61.71L192.06,64.59"/><path d="M192.32,64.53L192.17,64.65L193.65,63.45L192.11,64.62"/><path d="M196.54,61.16L191.93,64.52"/><path d="M191.63,64.34L194.74,62.18L194.58,62.29"/><path d="M192.56,64.33L192.60,64.30"/><path d="M194.74,62.57L193.65,63.45L193.79,63.33"/><path d="M194.74,62.18L197.09,60.55L196.91,60.67"/><path d="M195.61,146.89L204.32,155.14"/><path d="M195.42,62.02L195.52,61.96"/><path d="M196.31,61.33L196.81,60.93L196.31,61.33"/><path d="M196.81,60.93L197.34,60.55"/><path d="M196.93,148.05L205.78,156.12"/><path d="M197.54,60.39L197.79,60.21"/><path d="M196.91,60.88L197.39,60.51"/><path d="M197.09,60.55L198.10,59.84L197.97,59.94"/><path d="M198.00,60.04L198.24,59.88"/><path d="M198.10,59.84L199.04,59.20"/><path d="M200.18,150.90L202.35,152.72L202.05,152.47"/><path d="M202.35,153.67L202.55,153.87"/><path d="M210.00,158.95L202.35,152.72L208.13,157.61L207.79,157.33"/><path d="M228.29,98.81L227.55,96.77L226.72,95.86L224.22,92.55L222.67,90.64L220.96,88.65L219.11,86.60L217.10,84.47L213.44,80.70L207.48,74.80L206.87,74.26L205.08,72.81L202.67,71.02"/><path d="M207.79,157.15L212.14,160.37L211.56,159.95"/><path d="M206.87,74.26L217.26,73.04L219.20,72.91L220.51,72.93L221.44,73.02L222.25,73.17L223.07,73.44L223.54,73.72L223.89,74.12"/><path d="M208.88,157.96L211.36,159.87"/><path d="M208.62,158.02L208.13,157.61"/><path d="M208.32,157.77L208.17,157.65"/><path d="M208.63,157.77L208.40,157.59"/><path d="M211.59,159.95L213.46,161.25"/><path d="M212.14,160.37L212.70,160.77L212.14,160.37"/><path d="M215.72,32.85L215.70,32.79"/><path d="M217.58,164.01L218.02,164.30"/><path d="M218.67,164.73L230.64,172.60L229.59,171.92"/><path d="M222.35,70.83L222.34,70.78"/><path d="M243.62,78.32L243.32,78.26L242.42,78.38L237.75,79.53L236.15,79.86L234.63,80.11L233.54,80.24L232.09,80.35L230.74,80.34L229.51,80.23L228.39,80.02L227.45,79.71L226.51,79.25L225.71,78.67L225.06,77.98L224.56,77.18L224.38,76.74"/><path d="M224.71,77.43L225.64,78.59"/><path d="M226.51,79.25L224.54,77.13"/><path d="M224.46,76.94L225.15,77.58"/><path d="M225.32,78.20L225.43,78.34"/><path d="M228.46,170.94L230.04,171.92"/><path d="M228.29,170.83L227.37,170.25"/><path d="M251.47,105.50L249.13,105.29L247.16,105.05L245.24,104.75L243.38,104.41L240.81,103.80L239.65,103.49L237.87,102.92L236.19,102.30L234.61,101.62L232.74,100.67L231.27,99.79L229.93,98.86L228.73,97.90L227.55,96.77"/><path d="M231.73,172.98L230.64,172.32L232.51,173.51"/><path d="M231.06,172.88L230.64,172.60"/><path d="M232.72,173.61L235.20,174.69L235.99,174.85L236.63,174.77L237.34,174.50L238.31,173.86L242.38,170.67L246.11,167.34L249.47,163.89L252.48,160.33L254.83,157.08L255.10,156.62L255.43,155.92L255.95,154.41L256.13,153.68L256.44,151.98L256.58,150.37L256.57,149.60L256.41,148.50L256.29,148.16L256.09,147.90L254.04,146.33L251.35,144.44L249.37,143.34L246.96,142.21"/><path d="M261.52,107.71L261.31,106.63L261.46,107.49"/></g><g style="stroke:#000000;stroke-width:0.529"><path d="M202.66,71.01L216.80,69.39L218.25,69.36L219.25,69.41L220.42,69.59L221.13,69.78L221.69,70.03L222.17,70.43L223.89,74.12L223.97,74.50L224.06,75.61L224.21,76.29L224.38,76.74L225.25,77.17L226.17,77.46L227.22,77.65L228.70,77.73L229.91,77.69L231.21,77.56L232.60,77.34L235.14,76.81L239.31,75.71L239.93,75.60L240.43,75.60L242.60,77.43L243.63,78.34L243.65,78.44L243.45,78.68L242.59,79.27L234.99,83.69L234.60,84.01L234.34,84.39L234.12,84.98L234.02,85.54L234.01,86.32L234.09,87.00L234.28,87.88L234.52,88.59L234.91,89.47L235.28,90.14L235.80,90.93L236.26,91.50L236.85,92.11L241.01,95.28L244.86,98.56L248.35,101.97L251.49,105.51L258.10,105.88L260.04,106.13L260.66,106.27L261.06,106.42L261.28,106.57L261.34,106.67L261.94,109.90L261.92,110.05L261.37,110.75L260.67,111.44L259.79,112.14L259.65,112.34L259.46,113.13L259.40,114.38L259.55,116.70L259.95,119.32L260.28,120.78L261.46,124.99L262.14,128.91L262.42,132.85L262.42,137.06L262.15,141.13L261.38,145.48L260.24,149.49L258.66,153.45L256.66,157.35L254.25,161.16L251.27,165.13L248.04,168.76L244.47,172.22L240.51,175.57L236.20,178.77L231.55,181.82L226.39,184.79L221.13,187.47L215.60,189.96L209.81,192.24L203.78,194.31L197.55,196.16L191.12,197.78L184.54,199.17L177.82,200.31L170.98,201.22L164.07,201.88L157.09,202.29L150.09,202.44L143.08,202.35L136.10,202.00L129.16,201.41L122.31,200.56L115.55,199.48L108.93,198.15L102.47,196.58L96.18,194.79L90.10,192.78L84.25,190.55L78.65,188.11L73.32,185.48L68.09,182.55L63.36,179.55L58.96,176.39L54.91,173.07L51.22,169.62L47.92,166.04L45.00,162.35L42.32,158.31L40.22,154.43L38.54,150.48L37.29,146.49L36.41,142.14L36.03,138.08L36.01,134.26"/><path d="M36.01,134.92L36.00,134.22L36.14,130.28L36.68,126.35L36.81,125.84L36.50,122.42L36.48,120.94L36.62,119.51L36.94,118.03L37.37,116.85L38.01,115.63L38.79,114.59L39.44,113.99L41.88,102.12L44.78,90.99L45.31,89.49L45.62,88.81L46.32,87.58L47.13,86.48L49.05,84.23"/><path d="M48.96,84.34L50.09,83.03L50.46,82.69L51.35,82.01L52.34,81.46L53.23,81.15L54.01,81.01L54.84,81.02L56.97,81.14L59.12,81.08L61.30,80.83L63.52,80.39L65.15,79.95L67.55,79.13L69.91,78.12L70.27,77.93L72.28,74.80L73.58,72.87"/><path d="M73.58,72.87L74.20,70.30L75.76,64.55L77.46,58.85L79.32,53.17L81.32,47.55L83.46,41.97L85.73,36.44L88.12,30.98L90.66,25.52L90.95,24.97L91.73,23.78L92.47,22.93L93.34,22.17L94.44,21.49L95.40,21.10L96.61,20.76L98.55,20.30L99.83,20.28L100.98,20.52L101.94,20.96L127.43,35.68L127.73,33.89L128.98,31.52L131.00,29.33L133.73,27.41L137.04,25.84L140.83,24.68L141.24,24.60L150.10,15.58L157.10,8.63L158.11,7.71L158.78,7.19L159.25,6.89L159.69,6.73L159.92,6.74L163.79,8.18L163.95,8.40L163.93,8.72L163.77,9.30L163.49,9.96L156.73,24.52L157.59,24.67L161.38,25.84L164.70,27.42L167.42,29.33L169.45,31.52L170.69,33.89L171.11,36.36L171.11,37.76L172.23,37.67L210.30,31.82L211.66,31.73L212.64,31.73L213.75,31.82L214.46,31.97L215.02,32.16L215.50,32.48L215.70,32.79L216.49,34.33L217.37,36.23L217.31,36.60L216.58,38.43L215.65,40.32L214.54,42.23L213.27,44.13L211.82,46.05L210.19,48.01L208.40,50.01L206.44,52.03L200.25,58.07L198.80,59.41L197.79,60.21"/><path d="M192.17,64.65L199.65,68.99L202.66,71.01"/><path d="M197.91,60.12L198.00,60.06L195.52,61.96L192.17,64.65"/><path d="M197.54,60.39L197.39,60.51"/><path d="M198.08,59.99L197.96,60.08"/></g></g><g/><g id="paperID" visibility="hidden" opacity="0.00" transform="scale(0.000100)"><path style="stroke:#000000;stroke-width:0.500;fill:#e6e6e6;fill-rule:evenodd" d="M-2000.00,-2000.00L2297.00,-2000.00L2297.00,2210.00L-2000.00,2210.00zM0.00,0.00L297.00,0.00L297.00,210.00L0.00,210.00z"/><path style="fill:#000000;fill-opacity:0.118" d="M3.00,210.00L297.00,210.00L297.00,3.00L300.00,3.00L300.00,213.00L3.00,213.00z"/></g><g id="ToolTip" visibility="hidden" opacity="0" transform="translate(0,0)"><rect id="ToolTipShadow" opacity="0.20" fill="black" stroke="none" x="0" y="0" width="30" height="8"/><rect id="ToolTipBG" fill="#ffffe1" stroke="black" x="0" y="0" width="30" height="8"/><text xml:space="preserve" id="ToolTipText" fill="black" x="0" y="0" width="30" height="8">tooltip</text></g></g></svg>
